<?xml version="1.0" encoding="UTF-8"?>
<svg id="Capa_2" data-name="Capa 2" xmlns="http://www.w3.org/2000/svg" xmlns:xlink="http://www.w3.org/1999/xlink" viewBox="0 0 1121.5 1121.5">
  <defs>
    <style>
      .cls-1 {
        fill: url(#Degradado_sin_nombre_6);
      }

      .cls-1, .cls-2 {
        stroke-width: 0px;
      }

      .cls-2 {
        fill: #fff;
      }
    </style>
    <linearGradient id="Degradado_sin_nombre_6" data-name="Degradado sin nombre 6" x1="0" y1="560.75" x2="1121.5" y2="560.75" gradientUnits="userSpaceOnUse">
      <stop offset="0" stop-color="#d07985"/>
      <stop offset="1" stop-color="#6a3fe3"/>
    </linearGradient>
  </defs>
  <g id="Capa_2-2" data-name="Capa 2">
    <rect class="cls-1" width="1121.5" height="1121.5" rx="203.99" ry="203.99"/>
    <path class="cls-2" d="M892.43,348.06c-42.97-45.9-99.93-71.17-160.37-71.17s-117.4,25.28-160.37,71.17c-3.8,4.06-7.44,8.23-10.93,12.52-3.49-4.28-7.13-8.46-10.93-12.52-42.97-45.9-99.93-71.17-160.37-71.17s-117.4,25.28-160.37,71.17c-42.97,45.9-66.64,106.73-66.64,171.29v266.77c0,32.31,24.94,58.5,55.71,58.5s55.71-26.19,55.71-58.5v-266.77c0-32.78,12.08-63.73,34-87.15,21.93-23.42,50.9-36.32,81.59-36.32s59.66,12.9,81.59,36.32,34,54.37,34,87.15v266.77c0,32.31,24.94,58.5,55.71,58.5s55.71-26.19,55.71-58.5v-266.77c0-32.78,12.08-63.73,34-87.15,21.93-23.42,50.9-36.32,81.59-36.32s59.66,12.9,81.59,36.32,34,54.37,34,87.15v266.77c0,32.31,24.94,58.5,55.71,58.5s55.71-26.19,55.71-58.5v-266.77c0-64.56-23.67-125.4-66.64-171.29Z"/>
  </g>
</svg>